<svg width="306" height="80" viewBox="0 0 306 80" fill="none" xmlns="http://www.w3.org/2000/svg">
<path d="M5.6 16.728H25.632C26.3147 16.728 26.8693 16.9627 27.296 17.432C27.7227 17.9013 27.936 18.52 27.936 19.288V63H21.216C19.7653 63 18.8053 62.7653 18.336 62.296C17.9093 61.8267 17.696 60.8453 17.696 59.352V24.728H7.456C6.21867 24.728 5.6 23.704 5.6 21.656V16.728ZM30.496 16.728H40.736C41.9733 16.728 42.592 17.752 42.592 19.8V24.728H30.496V16.728Z" fill="#C5C5C5" fill-opacity="0.53"/>
<path d="M33.35 16.728H53.382C54.0647 16.728 54.6193 16.9627 55.046 17.432C55.4727 17.9013 55.686 18.52 55.686 19.288V63H48.966C47.5153 63 46.5553 62.7653 46.086 62.296C45.6593 61.8267 45.446 60.8453 45.446 59.352V24.728H35.206C33.9687 24.728 33.35 23.704 33.35 21.656V16.728ZM58.246 16.728H68.486C69.7233 16.728 70.342 17.752 70.342 19.8V24.728H58.246V16.728Z" fill="white"/>
<path d="M110.36 54.02C110.04 54.02 109.78 53.9267 109.58 53.74C109.393 53.5533 109.3 53.3 109.3 52.98V30.3H100.8C100.48 30.3 100.22 30.2067 100.02 30.02C99.8333 29.8333 99.74 29.58 99.74 29.26C99.74 28.94 99.8333 28.6867 100.02 28.5C100.22 28.3 100.48 28.2 100.8 28.2H119.92C120.24 28.2 120.493 28.3 120.68 28.5C120.867 28.6867 120.96 28.94 120.96 29.26C120.96 29.58 120.867 29.8333 120.68 30.02C120.493 30.2067 120.24 30.3 119.92 30.3H111.4V52.98C111.4 53.2867 111.3 53.54 111.1 53.74C110.913 53.9267 110.667 54.02 110.36 54.02ZM122.902 54C122.195 54 121.842 53.6467 121.842 52.94V36.14C121.842 35.4467 122.195 35.1 122.902 35.1C123.595 35.1 123.942 35.4467 123.942 36.14V39.22C124.635 37.8867 125.635 36.8667 126.942 36.16C128.262 35.4533 129.822 35.1 131.622 35.1C132.328 35.1 132.682 35.4467 132.682 36.14C132.682 36.8467 132.328 37.2 131.622 37.2C129.248 37.2 127.408 37.74 126.102 38.82C124.795 39.8867 124.075 41.4133 123.942 43.4V52.94C123.942 53.6467 123.595 54 122.902 54ZM137.698 45.36V46.82C137.698 48.7 138.072 50.02 138.818 50.78C139.578 51.5267 140.912 51.9 142.818 51.9H146.098C147.778 51.9 148.998 51.6867 149.758 51.26C150.532 50.82 150.992 50.0667 151.138 49C151.192 48.6667 151.298 48.4133 151.458 48.24C151.632 48.0667 151.892 47.98 152.238 47.98C152.585 47.98 152.845 48.08 153.018 48.28C153.205 48.4667 153.278 48.7333 153.238 49.08C153.065 50.76 152.392 52 151.218 52.8C150.045 53.6 148.338 54 146.098 54H142.818C140.325 54 138.498 53.4267 137.338 52.28C136.178 51.12 135.598 49.3 135.598 46.82V42.3C135.598 39.78 136.178 37.9467 137.338 36.8C138.498 35.64 140.325 35.0733 142.818 35.1H146.098C148.592 35.1 150.412 35.68 151.558 36.84C152.718 37.9867 153.298 39.8067 153.298 42.3V44.3C153.298 45.0067 152.952 45.36 152.258 45.36H137.698ZM142.818 37.2C140.912 37.1733 139.578 37.54 138.818 38.3C138.072 39.0467 137.698 40.38 137.698 42.3V43.26H151.198V42.3C151.198 40.3933 150.825 39.0667 150.078 38.32C149.332 37.5733 148.005 37.2 146.098 37.2H142.818ZM161.3 54C160.593 54 160.24 53.6467 160.24 52.94V36.14C160.24 35.4467 160.593 35.1 161.3 35.1C161.993 35.1 162.34 35.4467 162.34 36.14V38.06C163.607 36.0867 165.9 35.1 169.22 35.1H170.34C172.833 35.1 174.653 35.68 175.8 36.84C176.96 37.9867 177.54 39.8067 177.54 42.3V52.94C177.54 53.6467 177.193 54 176.5 54C175.793 54 175.44 53.6467 175.44 52.94V42.3C175.44 40.3933 175.06 39.0667 174.3 38.32C173.553 37.5733 172.233 37.2 170.34 37.2H169.22C167.153 37.2 165.527 37.5267 164.34 38.18C163.153 38.8333 162.487 39.8533 162.34 41.24V52.94C162.34 53.6467 161.993 54 161.3 54ZM191.334 54C188.841 54 187.014 53.42 185.854 52.26C184.694 51.1 184.114 49.2733 184.114 46.78V42.3C184.114 39.8067 184.694 37.9867 185.854 36.84C187.014 35.68 188.841 35.1 191.334 35.1H199.714V27.3C199.714 26.6067 200.067 26.26 200.774 26.26C201.467 26.26 201.814 26.6067 201.814 27.3V52.94C201.814 53.6467 201.467 54 200.774 54C200.067 54 199.714 53.6467 199.714 52.94V51.22C199.141 52.14 198.301 52.8333 197.194 53.3C196.087 53.7667 194.641 54 192.854 54H191.334ZM191.334 51.9H192.854C194.934 51.9 196.594 51.5733 197.834 50.92C199.087 50.2533 199.714 49.26 199.714 47.94V37.2H191.334C189.427 37.2 188.094 37.58 187.334 38.34C186.587 39.0867 186.214 40.4067 186.214 42.3V46.78C186.214 48.6867 186.587 50.02 187.334 50.78C188.094 51.5267 189.427 51.9 191.334 51.9ZM216.571 54.02C216.251 54.02 215.991 53.9267 215.791 53.74C215.604 53.5533 215.511 53.3 215.511 52.98V30.3H207.011C206.691 30.3 206.431 30.2067 206.231 30.02C206.044 29.8333 205.951 29.58 205.951 29.26C205.951 28.94 206.044 28.6867 206.231 28.5C206.431 28.3 206.691 28.2 207.011 28.2H226.131C226.451 28.2 226.704 28.3 226.891 28.5C227.078 28.6867 227.171 28.94 227.171 29.26C227.171 29.58 227.078 29.8333 226.891 30.02C226.704 30.2067 226.451 30.3 226.131 30.3H217.611V52.98C217.611 53.2867 217.511 53.54 217.311 53.74C217.124 53.9267 216.878 54.02 216.571 54.02ZM229.113 54C228.406 54 228.053 53.6467 228.053 52.94V36.14C228.053 35.4467 228.406 35.1 229.113 35.1C229.806 35.1 230.153 35.4467 230.153 36.14V39.22C230.846 37.8867 231.846 36.8667 233.153 36.16C234.473 35.4533 236.033 35.1 237.833 35.1C238.539 35.1 238.893 35.4467 238.893 36.14C238.893 36.8467 238.539 37.2 237.833 37.2C235.459 37.2 233.619 37.74 232.313 38.82C231.006 39.8867 230.286 41.4133 230.153 43.4V52.94C230.153 53.6467 229.806 54 229.113 54ZM249.029 54C246.536 54 244.709 53.4267 243.549 52.28C242.389 51.12 241.809 49.3 241.809 46.82V42.3C241.809 39.78 242.389 37.9467 243.549 36.8C244.709 35.64 246.536 35.0733 249.029 35.1H252.309C254.803 35.1 256.623 35.68 257.769 36.84C258.929 37.9867 259.509 39.8067 259.509 42.3V46.78C259.509 49.2733 258.929 51.1 257.769 52.26C256.623 53.42 254.803 54 252.309 54H249.029ZM243.909 46.82C243.909 48.7 244.283 50.02 245.029 50.78C245.789 51.5267 247.123 51.9 249.029 51.9H252.309C254.216 51.9 255.543 51.5267 256.289 50.78C257.036 50.02 257.409 48.6867 257.409 46.78V42.3C257.409 40.3933 257.036 39.0667 256.289 38.32C255.543 37.5733 254.216 37.2 252.309 37.2H249.029C247.749 37.1867 246.736 37.34 245.989 37.66C245.243 37.98 244.709 38.5133 244.389 39.26C244.069 40.0067 243.909 41.02 243.909 42.3V46.82ZM272.93 53.2C272.783 53.52 272.603 53.7333 272.39 53.84C272.176 53.9467 271.93 54 271.65 54C271.063 54 270.65 53.7267 270.41 53.18L262.99 36.56C262.71 35.9067 262.903 35.4533 263.57 35.2C264.196 34.9333 264.65 35.12 264.93 35.76L272.33 52.32H271.05L278.93 35.74C279.076 35.4333 279.27 35.2333 279.51 35.14C279.75 35.0467 280.023 35.0667 280.33 35.2C280.983 35.4933 281.163 35.96 280.87 36.6L272.93 53.2ZM286.488 45.36V46.82C286.488 48.7 286.861 50.02 287.608 50.78C288.368 51.5267 289.701 51.9 291.608 51.9H294.888C296.568 51.9 297.788 51.6867 298.548 51.26C299.321 50.82 299.781 50.0667 299.928 49C299.981 48.6667 300.088 48.4133 300.248 48.24C300.421 48.0667 300.681 47.98 301.028 47.98C301.374 47.98 301.634 48.08 301.808 48.28C301.994 48.4667 302.068 48.7333 302.028 49.08C301.854 50.76 301.181 52 300.008 52.8C298.834 53.6 297.128 54 294.888 54H291.608C289.114 54 287.288 53.4267 286.128 52.28C284.968 51.12 284.388 49.3 284.388 46.82V42.3C284.388 39.78 284.968 37.9467 286.128 36.8C287.288 35.64 289.114 35.0733 291.608 35.1H294.888C297.381 35.1 299.201 35.68 300.348 36.84C301.508 37.9867 302.088 39.8067 302.088 42.3V44.3C302.088 45.0067 301.741 45.36 301.048 45.36H286.488ZM291.608 37.2C289.701 37.1733 288.368 37.54 287.608 38.3C286.861 39.0467 286.488 40.38 286.488 42.3V43.26H299.988V42.3C299.988 40.3933 299.614 39.0667 298.868 38.32C298.121 37.5733 296.794 37.2 294.888 37.2H291.608Z" fill="white"/>
<rect x="1" y="1" width="78" height="78" stroke="#53377A" stroke-width="2"/>
</svg>
